<svg width="20" height="20" viewBox="0 0 20 20" fill="none" xmlns="http://www.w3.org/2000/svg">
<path d="M7.49996 14.1667H12.5M7.49996 11.6667H12.5M15.833 7.5H12.1663C11.6996 7.5 11.4665 7.49999 11.2882 7.40916C11.1314 7.32926 11.004 7.20181 10.9241 7.04501C10.8333 6.86675 10.8333 6.63338 10.8333 6.16667V2.5M15.8333 14.8333V8.04499C15.8333 7.65873 15.8335 7.4656 15.7918 7.28277C15.7548 7.12062 15.694 6.9649 15.6109 6.82082C15.5173 6.65835 15.386 6.51664 15.1236 6.23322L12.4585 3.3549C12.1668 3.0399 12.0208 2.8824 11.8473 2.76952C11.6935 2.66947 11.5238 2.59553 11.3459 2.55064C11.1452 2.5 10.931 2.5 10.5017 2.5H6.83346C5.90003 2.5 5.43298 2.5 5.07646 2.68166C4.76285 2.84144 4.50807 3.09643 4.34828 3.41003C4.16663 3.76655 4.16663 4.23326 4.16663 5.16668V14.8333C4.16663 15.7668 4.16663 16.2335 4.34828 16.59C4.50807 16.9036 4.76285 17.1585 5.07646 17.3183C5.43298 17.5 5.90003 17.5 6.83346 17.5H13.1668C14.1002 17.5 14.5666 17.5 14.9231 17.3183C15.2367 17.1585 15.492 16.9036 15.6518 16.59C15.8335 16.2335 15.8333 15.7668 15.8333 14.8333Z" stroke="black" stroke-width="1.5" stroke-linecap="round" stroke-linejoin="round"/>
</svg>
