<svg width="22" height="18" viewBox="0 0 22 18" fill="none" xmlns="http://www.w3.org/2000/svg">
<path fill-rule="evenodd" clip-rule="evenodd" d="M0.497729 4.57288C0.177873 7.54476 0.192131 10.9723 0.637215 13.9321C0.88349 15.5698 2.22011 16.8254 3.87003 16.9688L5.59436 17.1187C9.18981 17.4312 12.8056 17.4312 16.4011 17.1187L18.1254 16.9688C19.7753 16.8254 21.1119 15.5698 21.3582 13.9321C21.8033 10.9723 21.8176 7.54495 21.4977 4.57306C21.4563 4.22852 21.4098 3.88445 21.3582 3.54095C21.1119 1.90322 19.7753 0.64769 18.1254 0.504266L16.401 0.354374C12.8056 0.0418281 9.18981 0.0418283 5.59435 0.354374L3.87003 0.504266C2.22011 0.647691 0.88349 1.90322 0.637215 3.54095C0.58557 3.88439 0.539075 4.2284 0.497729 4.57288ZM5.74267 2.06058C9.23943 1.75661 12.756 1.75661 16.2527 2.06058L17.9771 2.21047C18.8383 2.28534 19.536 2.94073 19.6646 3.79563C19.6779 3.88441 19.6909 3.97323 19.7036 4.06209L13.3542 7.58949C11.8887 8.40369 10.1066 8.40369 8.64109 7.58949L2.29184 4.06213C2.30447 3.97325 2.31746 3.88442 2.33081 3.79562C2.45937 2.94073 3.15709 2.28534 4.01835 2.21047L5.74267 2.06058ZM19.9131 5.90485C20.1346 8.49407 20.0518 11.1028 19.6646 13.6774C19.536 14.5323 18.8383 15.1877 17.9771 15.2626L16.2527 15.4125C12.756 15.7165 9.23943 15.7165 5.74267 15.4125L4.01835 15.2626C3.15709 15.1877 2.45937 14.5323 2.33081 13.6774C1.94365 11.1028 1.86081 8.4941 2.08227 5.90489L7.80936 9.0866C9.79217 10.1882 12.2032 10.1882 14.186 9.08661L19.9131 5.90485Z" fill="#902B43"/>
</svg>
