<svg width="77" height="77" viewBox="0 0 77 77" fill="none" xmlns="http://www.w3.org/2000/svg">
<path d="M51.7956 44.252C49.936 42.3923 46.9209 42.3923 45.0613 44.252C43.2016 46.1116 43.2016 49.1267 45.0613 50.9863L51.7956 44.252ZM64.1089 70.0339C65.9685 71.8936 68.9836 71.8936 70.8432 70.0339C72.7029 68.1743 72.7029 65.1592 70.8432 63.2996L64.1089 70.0339ZM32.5554 49.2064C22.9124 49.2064 15.0951 41.3892 15.0951 31.7461H5.57129C5.57129 46.649 17.6525 58.7303 32.5554 58.7303V49.2064ZM15.0951 31.7461C15.0951 22.1031 22.9124 14.2858 32.5554 14.2858V4.76196C17.6525 4.76196 5.57129 16.8432 5.57129 31.7461H15.0951ZM32.5554 14.2858C42.1985 14.2858 50.0157 22.1031 50.0157 31.7461H59.5396C59.5396 16.8432 47.4584 4.76196 32.5554 4.76196V14.2858ZM50.0157 31.7461C50.0157 41.3892 42.1985 49.2064 32.5554 49.2064V58.7303C47.4584 58.7303 59.5396 46.649 59.5396 31.7461H50.0157ZM45.0613 50.9863L64.1089 70.0339L70.8432 63.2996L51.7956 44.252L45.0613 50.9863Z" fill="#8C8989"/>
</svg>
