<svg width="77" height="77" viewBox="0 0 77 77" fill="none" xmlns="http://www.w3.org/2000/svg">
<path d="M50.9859 44.9185C49.1262 43.0589 46.1111 43.0589 44.2515 44.9185C42.3919 46.7781 42.3919 49.7932 44.2515 51.6528L50.9859 44.9185ZM63.2991 70.7005C65.1588 72.5601 68.1738 72.5601 70.0335 70.7005C71.8931 68.8408 71.8931 65.8258 70.0335 63.9661L63.2991 70.7005ZM31.7457 49.873C22.1026 49.873 14.2853 42.0557 14.2853 32.4127H4.76153C4.76153 47.3156 16.8427 59.3968 31.7457 59.3968V49.873ZM14.2853 32.4127C14.2853 22.7696 22.1026 14.9523 31.7457 14.9523V5.42852C16.8427 5.42852 4.76153 17.5097 4.76153 32.4127H14.2853ZM31.7457 14.9523C41.3887 14.9523 49.206 22.7696 49.206 32.4127H58.7298C58.7298 17.5097 46.6486 5.42852 31.7457 5.42852V14.9523ZM49.206 32.4127C49.206 42.0557 41.3887 49.873 31.7457 49.873V59.3968C46.6486 59.3968 58.7298 47.3156 58.7298 32.4127H49.206ZM44.2515 51.6528L63.2991 70.7005L70.0335 63.9661L50.9859 44.9185L44.2515 51.6528Z" fill="white"/>
</svg>
