<svg width="77" height="77" viewBox="0 0 77 77" fill="none" xmlns="http://www.w3.org/2000/svg">
<path d="M51.7954 44.2519C49.9358 42.3922 46.9207 42.3922 45.0611 44.2519C43.2014 46.1115 43.2014 49.1266 45.0611 50.9862L51.7954 44.2519ZM64.1087 70.0338C65.9683 71.8935 68.9834 71.8935 70.843 70.0338C72.7027 68.1742 72.7027 65.1591 70.843 63.2995L64.1087 70.0338ZM32.5552 49.2063C22.9122 49.2063 15.0949 41.3891 15.0949 31.746H5.5711C5.5711 46.6489 17.6523 58.7302 32.5552 58.7302V49.2063ZM15.0949 31.746C15.0949 22.103 22.9122 14.2857 32.5552 14.2857V4.7619C17.6523 4.7619 5.5711 16.8431 5.5711 31.746H15.0949ZM32.5552 14.2857C42.1983 14.2857 50.0155 22.103 50.0155 31.746H59.5394C59.5394 16.8431 47.4582 4.7619 32.5552 4.7619V14.2857ZM50.0155 31.746C50.0155 41.3891 42.1983 49.2063 32.5552 49.2063V58.7302C47.4582 58.7302 59.5394 46.6489 59.5394 31.746H50.0155ZM45.0611 50.9862L64.1087 70.0338L70.843 63.2995L51.7954 44.2519L45.0611 50.9862Z" fill="#70154C"/>
</svg>
