<svg width="14" height="14" viewBox="0 0 14 14" fill="none" xmlns="http://www.w3.org/2000/svg">
<path d="M9.35355 8.64645C9.15829 8.45118 8.84171 8.45118 8.64645 8.64645C8.45118 8.84171 8.45118 9.15829 8.64645 9.35355L9.35355 8.64645ZM12.6464 13.3536C12.8417 13.5488 13.1583 13.5488 13.3536 13.3536C13.5488 13.1583 13.5488 12.8417 13.3536 12.6464L12.6464 13.3536ZM5.66667 9.83333C3.36548 9.83333 1.5 7.96785 1.5 5.66667H0.5C0.5 8.52014 2.8132 10.8333 5.66667 10.8333V9.83333ZM1.5 5.66667C1.5 3.36548 3.36548 1.5 5.66667 1.5V0.5C2.8132 0.5 0.5 2.8132 0.5 5.66667H1.5ZM5.66667 1.5C7.96785 1.5 9.83333 3.36548 9.83333 5.66667H10.8333C10.8333 2.8132 8.52014 0.5 5.66667 0.5V1.5ZM9.83333 5.66667C9.83333 7.96785 7.96785 9.83333 5.66667 9.83333V10.8333C8.52014 10.8333 10.8333 8.52014 10.8333 5.66667H9.83333ZM8.64645 9.35355L12.6464 13.3536L13.3536 12.6464L9.35355 8.64645L8.64645 9.35355Z" fill="#902B43" fill-opacity="0.5"/>
</svg>
