<svg width="22" height="18" viewBox="0 0 22 18" fill="none" xmlns="http://www.w3.org/2000/svg">
<path fill-rule="evenodd" clip-rule="evenodd" d="M1.20325 5.01632C0.90777 7.76175 0.920942 10.9281 1.33211 13.6624C1.55962 15.1753 2.7944 16.3352 4.31859 16.4677L5.91152 16.6062C9.23301 16.8949 12.5733 16.8949 15.8948 16.6062L17.4877 16.4677C19.0119 16.3352 20.2467 15.1753 20.4742 13.6624C20.8853 10.9281 20.8985 7.76193 20.6031 5.01649C20.5649 4.6982 20.5219 4.38034 20.4742 4.06302C20.2467 2.55008 19.0119 1.39022 17.4877 1.25773L15.8948 1.11926C12.5733 0.830527 9.23301 0.830527 5.91152 1.11926L4.31859 1.25773C2.79439 1.39022 1.55962 2.55008 1.33211 4.06302C1.2844 4.38029 1.24145 4.69809 1.20325 5.01632ZM6.04854 2.69545C9.27885 2.41465 12.5274 2.41465 15.7577 2.69545L17.3507 2.83392C18.1463 2.90309 18.7909 3.50854 18.9096 4.29829C18.922 4.38031 18.934 4.46236 18.9456 4.54445L13.0801 7.80307C11.7262 8.55523 10.08 8.55523 8.7261 7.80307L2.86066 4.54449C2.87232 4.46238 2.88432 4.38032 2.89666 4.29829C3.01542 3.50854 3.65997 2.90309 4.45561 2.83392L6.04854 2.69545ZM19.1392 6.24679C19.3438 8.63873 19.2673 11.0487 18.9096 13.4271C18.7909 14.2169 18.1463 14.8223 17.3507 14.8915L15.7578 15.03C12.5274 15.3108 9.27885 15.3108 6.04854 15.03L4.45561 14.8915C3.65997 14.8223 3.01542 14.2169 2.89666 13.4271C2.539 11.0487 2.46247 8.63875 2.66706 6.24683L7.95775 9.18611C9.78947 10.2037 12.0167 10.2037 13.8485 9.18611L19.1392 6.24679Z" fill="#902B43" stroke="#902B43" stroke-width="0.5" stroke-linejoin="round"/>
</svg>
