<svg width="22" height="18" viewBox="0 0 22 18" fill="none" xmlns="http://www.w3.org/2000/svg">
<path fill-rule="evenodd" clip-rule="evenodd" d="M1.20325 5.11361C0.90777 7.85904 0.920942 11.0254 1.33211 13.7597C1.55962 15.2726 2.7944 16.4325 4.31859 16.565L5.91152 16.7035C9.23301 16.9922 12.5733 16.9922 15.8948 16.7035L17.4877 16.565C19.0119 16.4325 20.2467 15.2726 20.4742 13.7597C20.8854 11.0254 20.8985 7.85922 20.6031 5.11378C20.5649 4.79549 20.5219 4.47763 20.4742 4.16031C20.2467 2.64737 19.0119 1.48751 17.4877 1.35502L15.8948 1.21655C12.5733 0.927817 9.23301 0.927818 5.91152 1.21655L4.31859 1.35502C2.79439 1.48751 1.55962 2.64737 1.33211 4.16031C1.2844 4.47758 1.24145 4.79538 1.20325 5.11361ZM6.04854 2.79274C9.27885 2.51194 12.5274 2.51194 15.7577 2.79274L17.3507 2.93121C18.1463 3.00038 18.7909 3.60583 18.9096 4.39558C18.922 4.4776 18.934 4.55965 18.9456 4.64174L13.0801 7.90036C11.7262 8.65252 10.08 8.65252 8.7261 7.90036L2.86066 4.64178C2.87232 4.55967 2.88432 4.47761 2.89666 4.39558C3.01542 3.60583 3.65997 3.00038 4.45561 2.93121L6.04854 2.79274ZM19.1392 6.34408C19.3438 8.73602 19.2673 11.146 18.9096 13.5244C18.7909 14.3142 18.1463 14.9196 17.3507 14.9888L15.7578 15.1273C12.5274 15.4081 9.27885 15.4081 6.04854 15.1273L4.45561 14.9888C3.65997 14.9196 3.01542 14.3142 2.89666 13.5244C2.539 11.146 2.46247 8.73604 2.66706 6.34412L7.95775 9.2834C9.78948 10.301 12.0167 10.301 13.8485 9.2834L19.1392 6.34408Z" fill="#622634" stroke="#622634" stroke-width="0.5" stroke-linejoin="round"/>
</svg>
