<svg width="32" height="32" viewBox="0 0 32 32" fill="none" xmlns="http://www.w3.org/2000/svg">
<path d="M0 16C0 24.8366 7.16344 32 16 32C24.8366 32 32 24.8366 32 16C32 7.16344 24.8366 0 16 0C7.16344 0 0 7.16344 0 16Z" fill="#E9D5D9"/>
<path fill-rule="evenodd" clip-rule="evenodd" d="M6.20325 12.1136C5.90777 14.859 5.92094 18.0254 6.33211 20.7597C6.55962 22.2726 7.7944 23.4325 9.31859 23.565L10.9115 23.7035C14.233 23.9922 17.5733 23.9922 20.8948 23.7035L22.4877 23.565C24.0119 23.4325 25.2467 22.2726 25.4742 20.7597C25.8854 18.0254 25.8985 14.8592 25.6031 12.1138C25.5649 11.7955 25.5219 11.4776 25.4742 11.1603C25.2467 9.64737 24.0119 8.48751 22.4877 8.35502L20.8948 8.21655C17.5733 7.92782 14.233 7.92782 10.9115 8.21655L9.31859 8.35502C7.79439 8.48751 6.55962 9.64737 6.33211 11.1603C6.2844 11.4776 6.24145 11.7954 6.20325 12.1136ZM11.0485 9.79274C14.2789 9.51194 17.5274 9.51194 20.7577 9.79274L22.3507 9.93121C23.1463 10.0004 23.7909 10.6058 23.9096 11.3956C23.922 11.4776 23.934 11.5596 23.9456 11.6417L18.0801 14.9004C16.7262 15.6525 15.08 15.6525 13.7261 14.9004L7.86066 11.6418C7.87232 11.5597 7.88432 11.4776 7.89666 11.3956C8.01542 10.6058 8.65997 10.0004 9.45561 9.93121L11.0485 9.79274ZM24.1392 13.3441C24.3438 15.736 24.2673 18.146 23.9096 20.5244C23.7909 21.3142 23.1463 21.9196 22.3507 21.9888L20.7578 22.1273C17.5274 22.4081 14.2789 22.4081 11.0485 22.1273L9.45561 21.9888C8.65997 21.9196 8.01542 21.3142 7.89666 20.5244C7.539 18.146 7.46247 15.736 7.66706 13.3441L12.9577 16.2834C14.7895 17.301 17.0167 17.301 18.8485 16.2834L24.1392 13.3441Z" fill="#622634" stroke="#622634" stroke-width="0.5" stroke-linejoin="round"/>
</svg>
